<svg id="Слой_1" data-name="Слой 1" xmlns="http://www.w3.org/2000/svg" viewBox="0 0 139 36"><defs><style>.cls-1{font-size:20px;font-family:Gabriola;}.cls-1,.cls-9{fill:#404f3a;}.cls-2{fill:#c1c6cf;}.cls-3{fill:#e7d2b0;}.cls-3,.cls-5{stroke:#948883;stroke-width:0.07px;}.cls-13,.cls-15,.cls-17,.cls-19,.cls-21,.cls-3,.cls-5{stroke-miterlimit:10;}.cls-4{fill:#948883;}.cls-5,.cls-7{fill:#e7e2de;}.cls-10,.cls-11,.cls-12,.cls-14,.cls-16,.cls-18,.cls-20,.cls-22,.cls-6{fill:none;}.cls-10,.cls-11,.cls-12,.cls-13,.cls-14,.cls-15,.cls-16,.cls-17,.cls-18,.cls-19,.cls-20,.cls-21,.cls-22,.cls-6,.cls-8{stroke:#404f3a;}.cls-10,.cls-11,.cls-12,.cls-14,.cls-16,.cls-18,.cls-20,.cls-22,.cls-6,.cls-8{stroke-linecap:round;stroke-linejoin:round;}.cls-6{stroke-width:0.04px;}.cls-8{fill:#c1c8d2;}.cls-11,.cls-8{stroke-width:0.1px;}.cls-10{stroke-width:0.31px;}.cls-12{stroke-width:0.13px;}.cls-13,.cls-15,.cls-17,.cls-19,.cls-21{fill:#879584;}.cls-13,.cls-14{stroke-width:0.15px;}.cls-15,.cls-16{stroke-width:0.17px;}.cls-17,.cls-18{stroke-width:0.14px;}.cls-19,.cls-20{stroke-width:0.14px;}.cls-21,.cls-22{stroke-width:0.13px;}</style></defs><title>logo</title><text class="cls-1" transform="translate(36.4 23.26)">КисточкиШоп</text><path class="cls-2" d="M18.28,1A17.39,17.39,0,1,1,.9,18.38,17.38,17.38,0,0,1,18.28,1"/><path class="cls-3" d="M11.66,15.24s-.17.68-.61.75l11.42,9.2a4.77,4.77,0,0,0,1.84,1.09,9.71,9.71,0,0,0-1.61-1.56S11.89,14.77,11.66,15.24Z"/><path class="cls-4" d="M8.83,13.07a1,1,0,0,1-.35.59L11.05,16s.42.09.58-.82Z"/><path class="cls-5" d="M8.83,13.07A15.68,15.68,0,0,0,6,11.14s1.87,2.56,2.48,2.52C8.48,13.66,8.76,13.56,8.83,13.07Z"/><path class="cls-6" d="M6.11,11.25A16.77,16.77,0,0,1,8.8,13.18"/><path class="cls-6" d="M8.7,13.4a13.93,13.93,0,0,1-2.28-1.82"/><path class="cls-6" d="M8.63,13.49s-.63,0-1.9-1.58"/><path class="cls-6" d="M6.49,11.56a22.44,22.44,0,0,1,2.25,1.75"/><path class="cls-3" d="M19,16s-.32.62-.77.59l9,11.54s.86,1.26,1.55,1.49a10.25,10.25,0,0,0-1.21-1.89S19.36,15.54,19,16Z"/><path class="cls-4" d="M16.76,13.19s-.05.23-.47.49l2,2.86s.39.18.76-.67Z"/><path class="cls-5" d="M16.76,13.19a15.46,15.46,0,0,0-2.31-2.53s1.24,2.93,1.84,3C16.29,13.68,16.58,13.65,16.76,13.19Z"/><path class="cls-6" d="M14.53,10.8a16.66,16.66,0,0,1,2.18,2.48"/><path class="cls-6" d="M16.57,13.48a14.51,14.51,0,0,1-1.82-2.29"/><path class="cls-6" d="M16.47,13.55s-.61-.16-1.49-2"/><path class="cls-6" d="M14.83,11.18a22.05,22.05,0,0,1,1.79,2.22"/><polygon class="cls-3" points="21.6 13.28 21.55 13.41 19.83 15.01 20.24 17.2 20.32 16.98 20.25 17.19 27.88 19.84 29.24 15.92 21.6 13.28"/><rect class="cls-7" x="22.57" y="13.48" width="2.91" height="5.68" transform="translate(0.75 33.69) rotate(-70.91)"/><polygon class="cls-7" points="20.53 15.18 20.81 16.72 21.81 13.98 20.53 15.18"/><circle class="cls-8" cx="21.26" cy="15.4" r="0.31"/><path class="cls-9" d="M23.52,15.34a1.25,1.25,0,0,0-.63.28.46.46,0,0,0-.06.57.56.56,0,0,0,1,.2,1.44,1.44,0,0,1,1.37-.78,1,1,0,0,1,.67.55,1.09,1.09,0,0,1,0,.85h0a1.47,1.47,0,0,1-.44.55.89.89,0,0,1-.69.17.11.11,0,0,1-.09-.13.12.12,0,0,1,.12-.08c.38.06.69-.28.86-.62h0a.73.73,0,0,0-.5-1,.75.75,0,0,0-.6.14c-.21.12-.29.29-.5.52a.82.82,0,0,1-1.42-.29.72.72,0,0,1,.14-.83,1.47,1.47,0,0,1,.76-.3.09.09,0,0,1,.1.08.08.08,0,0,1-.07.1Z"/><line class="cls-10" x1="22.21" y1="15.65" x2="26.26" y2="16.99"/><path class="cls-11" d="M17.64,15.59s.39.08.8-.45c0,0-.84.39-1.08.08,0,0,.66.08.76-.42l3.17.63"/><path class="cls-3" d="M12.85,11.12l-.2-.93A1.06,1.06,0,0,0,12,9.62l-.35-.12L12,9.32a.92.92,0,0,0,.5-.56l.1-.86.26.85a1.07,1.07,0,0,0,.5.44l.43.18-.34.15a1.11,1.11,0,0,0-.57.65Z"/><path class="cls-3" d="M12.49,13.56,12.37,13a.67.67,0,0,0-.39-.35l-.22-.07.24-.11a.59.59,0,0,0,.3-.34l.06-.53.16.52a.65.65,0,0,0,.3.27l.26.11-.2.09a.69.69,0,0,0-.35.4Z"/><path class="cls-3" d="M16.54,25.73l-.12-.57a.64.64,0,0,0-.39-.35l-.21-.07.23-.11a.58.58,0,0,0,.31-.34l.06-.52.16.51a.57.57,0,0,0,.3.27l.26.11-.2.1a.62.62,0,0,0-.35.39Z"/><path class="cls-12" d="M27.84,31.51c-2.66.8-8.79-1.12-8.79-1.12s-1.76-.48-7.4.77C8.29,31.9,6.06,29,4.81,26.6a5.44,5.44,0,0,1,.1-5.15c.67-1.2,1.27-2.69.87-3.77-.77-2.09-3.56-5.44-1.95-7.4A5.35,5.35,0,0,1,6.94,8.56a6.38,6.38,0,0,0,4-2.68,6.08,6.08,0,0,0,.42-.74,4.72,4.72,0,0,1,4.87-2.8,19.78,19.78,0,0,1,6,2,9.32,9.32,0,0,1,3.62,3.11A5.67,5.67,0,0,0,29.2,9.53a4.93,4.93,0,0,1,3.07,2.67,7.76,7.76,0,0,1,.53,6.11c-1.61,4-1.61,6.15-.91,7.12S30.84,30.6,27.84,31.51Z"/><path class="cls-13" d="M12.82,5.91c-.65-.4-1-1.08-.7-1.5s1-.43,1.66,0,.7,1.5.7,1.5A2.1,2.1,0,0,1,12.82,5.91Z"/><path class="cls-14" d="M14.52,5.77s-2.64-2.2-3-1"/><path class="cls-14" d="M12.86,4.66s-.18.87.05.91"/><line class="cls-14" x1="13.33" y1="4.89" x2="13.86" y2="4.61"/><path class="cls-15" d="M25.47,7.77c.84.25,1.4.89,1.24,1.44s-1,.8-1.82.55-1.25-1.43-1.25-1.43A2.44,2.44,0,0,1,25.47,7.77Z"/><path class="cls-16" d="M23.64,8.47s3.6,1.59,3.65.2"/><path class="cls-16" d="M25.82,9.17s-.08-1-.34-1"/><line class="cls-16" x1="25.23" y1="9.06" x2="24.73" y2="9.54"/><path class="cls-15" d="M10,29.86c-.81.34-1.65.18-1.87-.35S8.37,28.28,9.18,28a2.38,2.38,0,0,1,1.87.35S10.79,29.53,10,29.86Z"/><path class="cls-16" d="M11,28.18s-3.81,1-3,2.12"/><path class="cls-16" d="M8.82,29s.7.74.89.57"/><line class="cls-16" x1="9.36" y1="28.7" x2="9.45" y2="28.02"/><path class="cls-17" d="M16.31,32c-.37-.6-.37-1.29,0-1.53s1,0,1.39.64a2,2,0,0,1,0,1.54A1.93,1.93,0,0,1,16.31,32Z"/><path class="cls-18" d="M17.79,32.6s-1.31-2.9-2.09-2.09"/><path class="cls-18" d="M16.85,31s-.49.65-.33.78"/><line class="cls-18" x1="17.15" y1="31.39" x2="17.71" y2="31.36"/><path class="cls-19" d="M4.3,21.23c.2.7,0,1.39-.46,1.52s-1-.34-1.2-1.05a2,2,0,0,1,.46-1.52S4.1,20.52,4.3,21.23Z"/><path class="cls-20" d="M3,20.24s.47,3.26,1.48,2.68"/><path class="cls-20" d="M3.47,22.1s.68-.51.55-.68"/><path class="cls-3" d="M19.1,14,19,13.39a.65.65,0,0,0-.39-.34L18.37,13l.24-.11a.59.59,0,0,0,.3-.34L19,12l.16.52a.68.68,0,0,0,.31.27l.25.1-.2.1a.71.71,0,0,0-.35.39Z"/><path class="cls-3" d="M14.05,25l-.18-.85a1,1,0,0,0-.58-.51L13,23.54l.35-.16a.87.87,0,0,0,.45-.51l.09-.77.23.76a1,1,0,0,0,.45.4l.39.16-.3.14a1,1,0,0,0-.52.59Z"/><path class="cls-15" d="M29.72,23.32c.85.25,1.41.89,1.25,1.44s-1,.8-1.83.55-1.24-1.43-1.24-1.43A2.41,2.41,0,0,1,29.72,23.32Z"/><path class="cls-16" d="M27.89,24s3.6,1.59,3.66.2"/><path class="cls-16" d="M30.08,24.72s-.09-1-.35-1"/><line class="cls-16" x1="29.48" y1="24.61" x2="28.98" y2="25.09"/><path class="cls-21" d="M33.59,19.77c-.57.35-1.2.34-1.43,0s.05-.94.61-1.29a1.81,1.81,0,0,1,1.43,0A1.82,1.82,0,0,1,33.59,19.77Z"/><path class="cls-22" d="M34.12,18.4s-2.7,1.21-1.95,1.93"/><path class="cls-22" d="M32.63,19.26s.61.47.72.31"/><line class="cls-22" x1="32.99" y1="18.99" x2="32.97" y2="18.47"/></svg>